<svg width="397" height="397" viewBox="0 0 397 397" fill="none" xmlns="http://www.w3.org/2000/svg">
<path d="M131.5 309L146.5 293L263 287L293.5 363L276.5 379L170 397L131.5 309Z" fill="#0E558A"/>
<path d="M224.5 108.5L229 123L169 169L155.5 183.5L145.5 287C157.5 288.167 181.8 291 183 291C184.2 291 231 288.667 254.5 287L260.5 279L263.5 202.5L302.5 171L337.5 138L326.5 37.5L154 0.5L76 42L61 58.5L101 144.5L186.5 146.5L201.5 131.5L203 106.5L224.5 108.5Z" fill="#0E558A"/>
<path d="M153.5 0.5C129.167 14.5 79.2 41.1 76 41.5L116.5 127.5L201.5 130.5L203.5 90.5L240.5 92.5L245 112L169 169L162 272L260.5 279L263 202.5L302 171.5L337.5 138L326.5 38L153.5 0.5Z" fill="#3468A7"/>
<path d="M263 286.5L146.5 293L186 382L293.5 363L263 286.5Z" fill="#3468A7"/>
<path d="M254 303.5L169 307L195 364L272.5 351.5L254 303.5Z" fill="#FFCA06"/>
<path d="M245 262L178.5 257L188 173.5L267 119.5L251.5 76H189L188.5 114.5L128 113.5L93 49L156 14L311.5 47L320 135.5L247.5 193.5L245 262Z" fill="#FFCA06"/>
<path d="M300.5 58.5L309.5 143.5L320 135.5L311 47.5L156 14L93 49L95.5 53L144.5 26L300.5 58.5Z" fill="#CA9F09"/>
</svg>
